<svg width="1256" height="820" viewBox="0 0 1256 820" fill="none" xmlns="http://www.w3.org/2000/svg">
<path d="M219 0L224.837 18.6565H243.727L228.445 30.1869L234.282 48.8435L219 37.3131L203.718 48.8435L209.555 30.1869L194.273 18.6565H213.163L219 0Z" fill="#FEFBFB"/>
<path d="M1230 766L1235.84 784.657H1254.73L1239.45 796.187L1245.28 814.843L1230 803.313L1214.72 814.843L1220.55 796.187L1205.27 784.657H1224.16L1230 766Z" fill="#FEFBFB"/>
<path d="M26 750L31.8374 768.657H50.7275L35.4451 780.187L41.2824 798.843L26 787.313L10.7176 798.843L16.5549 780.187L1.27253 768.657H20.1626L26 750Z" fill="#FEFBFB"/>
<path d="M1015 177L1020.84 195.657H1039.73L1024.45 207.187L1030.28 225.843L1015 214.313L999.718 225.843L1005.55 207.187L990.273 195.657H1009.16L1015 177Z" fill="#FEFBFB"/>
</svg>
